# xmcd
#
# Track frame offsets: 
#        150
#        13433
#        24315
#        48012
#        62328
#        74468
#        85865
#        98336
#        112722
#        125842
#        139478
#        152023
#        165210
#        179094
#        191916
#        205722
#        224011
#        237061
#        250861
#        263689
#
# Disc length: 3687 seconds
#
# Revision: 3
# Processed by: cddbd v1.5.2PL0 Copyright (c) Steve Scherf et al.
# Submitted via: ExactAudioCopy v1.0b1
#
DISCID=110e6514
DTITLE=Various Artist - 100 Blues Tunes [CD 1]
DYEAR=1965
DGENRE=Blues
TTITLE0=Howlin' Wolf - Howlin' for my baby
TTITLE1=Billy "the Kid" Emerson  - Red Hot
TTITLE2=Ella Fitzgerald - Ella hums the blues
TTITLE3=Elmore James - Dust my blues
TTITLE4=Amos Milburn - Please, Mr Johnson
TTITLE5=Kitty White - Meaning of the blues
TTITLE6=Lightning Hopkins - My baby's gone
TTITLE7=Mildred Bailey - Rockin'  chair
TTITLE8=Champion Jack Dupree - Weed head woman
TTITLE9=Pearl Bailey - The birth of the blues
TTITLE10=Mississippi John Hurt - Stack O'Lee blues
TTITLE11=T-Bone Walker - Mean old world
TTITLE12=Roscoe Gordon - Two kinds of woman
TTITLE13=Jimmy Witherspoon - Blues and trouble
TTITLE14=Blind Leroy Garnett - Louisiana glide
TTITLE15=Gene Ammons - Blues for turfers
TTITLE16=Charles Brown - Texas blues
TTITLE17=Albinia Jones - Salty papa
TTITLE18=Little Milton - Lookin' for my baby
TTITLE19=Brownie McGhee - Born for bad luck
EXTD=
EXTT0=
EXTT1=
EXTT2=
EXTT3=
EXTT4=
EXTT5=
EXTT6=
EXTT7=
EXTT8=
EXTT9=
EXTT10=
EXTT11=
EXTT12=
EXTT13=
EXTT14=
EXTT15=
EXTT16=
EXTT17=
EXTT18=
EXTT19=
PLAYORDER=
